<svg id="Layer_1" data-name="Layer 1" xmlns="http://www.w3.org/2000/svg" xmlns:xlink="http://www.w3.org/1999/xlink" viewBox="0 0 534 140"><defs><style>.cls-1,.cls-3,.cls-5{fill:none;}.cls-2{clip-path:url(#clip-path);}.cls-3,.cls-5{stroke:#000;stroke-width:0.72px;}.cls-3{stroke-miterlimit:10;}.cls-4{fill:#fff;}.cls-6,.cls-7{font-size:8.63px;}.cls-6{font-family:Helvetica-Bold, Helvetica;font-weight:700;}.cls-7,.cls-8{font-family:Helvetica, Helvetica;}.cls-8{font-size:7.91px;}</style><clipPath id="clip-path"><rect class="cls-1" width="612" height="791.07"/></clipPath></defs><title>AI vs AGI (1)</title><g class="cls-2"><polyline class="cls-3" points="93.85 65.08 126.21 65.08 126.21 36.32 153.99 36.32"/><polygon points="157.77 36.32 152.73 38.83 153.99 36.32 152.73 33.8 157.77 36.32"/><polygon class="cls-3" points="157.77 36.32 152.73 38.83 153.99 36.32 152.73 33.8 157.77 36.32"/><polyline class="cls-3" points="93.85 65.08 126.21 65.08 126.21 101.04 153.99 101.04"/><polygon points="157.77 101.04 152.73 103.56 153.99 101.04 152.73 98.52 157.77 101.04"/><polygon class="cls-3" points="157.77 101.04 152.73 103.56 153.99 101.04 152.73 98.52 157.77 101.04"/><rect class="cls-4" x="7.55" y="43.51" width="86.3" height="43.15"/><rect class="cls-5" x="7.55" y="43.51" width="86.3" height="43.15"/><text class="cls-6" transform="translate(46.01 63.29)">AI</text><text class="cls-7" transform="translate(18.19 73.35)">General purpose</text><line class="cls-3" x1="273.64" y1="36.32" x2="398.5" y2="36.32"/><polygon points="402.28 36.32 397.25 38.83 398.5 36.32 397.25 33.8 402.28 36.32"/><polygon class="cls-3" points="402.28 36.32 397.25 38.83 398.5 36.32 397.25 33.8 402.28 36.32"/><rect class="cls-4" x="324.34" y="32.36" width="32.36" height="10.07"/><text class="cls-7" transform="translate(324.34 40.27)">Struggle</text><rect class="cls-4" x="158.57" y="14.74" width="115.06" height="43.15"/><rect class="cls-5" x="158.57" y="14.74" width="115.06" height="43.15"/><text class="cls-6" transform="translate(211.42 34.52)">AI</text><text class="cls-7" transform="translate(183.6 44.59)">General purpose</text><line class="cls-3" x1="273.64" y1="101.04" x2="333.78" y2="101.04"/><polygon points="337.56 101.04 332.52 103.56 333.78 101.04 332.52 98.52 337.56 101.04"/><polygon class="cls-3" points="337.56 101.04 332.52 103.56 333.78 101.04 332.52 98.52 337.56 101.04"/><rect class="cls-4" x="290.54" y="97.09" width="30.2" height="9.35"/><text class="cls-8" transform="translate(290.54 104.28)">Success</text><rect class="cls-4" x="158.57" y="79.47" width="115.06" height="43.15"/><rect class="cls-5" x="158.57" y="79.47" width="115.06" height="43.15"/><text class="cls-6" transform="translate(169.47 99.24)">Machine Learning (ML)</text><text class="cls-7" transform="translate(179.77 109.31)">Application speciﬁc</text><rect class="cls-4" x="338.36" y="79.47" width="115.06" height="43.15"/><rect class="cls-5" x="338.36" y="79.47" width="115.06" height="43.15"/><text class="cls-6" transform="translate(391.21 99.24)">AI</text><text class="cls-7" transform="translate(345.41 109.31)">Mostly application-speciﬁc</text><rect class="cls-4" x="403.09" y="14.74" width="115.06" height="43.15"/><rect class="cls-5" x="403.09" y="14.74" width="115.06" height="43.15"/><text class="cls-6" transform="translate(452.58 34.52)">AGI</text><text class="cls-7" transform="translate(428.11 44.59)">General purpose</text></g></svg>